<?xml version="1.0" standalone="no"?>
<!DOCTYPE svg PUBLIC "-//W3C//DTD SVG 20010904//EN"
 "http://www.w3.org/TR/2001/REC-SVG-20010904/DTD/svg10.dtd">
<svg version="1.0" xmlns="http://www.w3.org/2000/svg"
 width="512.000000pt" height="512.000000pt" viewBox="0 0 512.000000 512.000000"
 preserveAspectRatio="xMidYMid meet">
<metadata>
Created by potrace 1.14, written by Peter Selinger 2001-2017
</metadata>
<g transform="translate(0.000000,512.000000) scale(0.100000,-0.100000)"
fill="#000000" stroke="none">
<path d="M748 4485 c-2 -3 -1 -28 3 -57 10 -69 10 -1447 0 -1515 l-7 -53 153
0 153 0 -6 28 c-3 15 -8 168 -10 340 l-4 313 181 -1 c132 -1 192 -6 225 -17
73 -25 135 -103 199 -249 21 -49 44 -102 51 -119 7 -16 33 -90 56 -162 l43
-133 163 0 c89 0 162 4 162 8 0 5 -18 46 -40 91 -22 45 -52 110 -66 144 -91
216 -189 409 -230 454 -22 23 -56 51 -78 62 l-38 20 43 11 c64 17 115 46 165
92 43 39 91 121 99 169 25 143 21 222 -15 320 -29 78 -105 159 -182 194 -103
47 -156 53 -490 55 -172 1 -361 3 -419 5 -59 3 -108 2 -111 0z m811 -255 c89
-30 127 -80 137 -179 9 -85 -16 -159 -71 -210 -64 -59 -90 -64 -357 -67 l-236
-2 -1 238 -1 238 239 0 c200 0 246 -3 290 -18z"/>
<path d="M3062 4405 c29 -42 64 -93 78 -115 14 -22 128 -203 255 -403 l230
-362 -1 -240 c0 -132 -3 -282 -7 -332 l-6 -93 153 0 153 0 -7 47 c-4 26 -8
175 -9 330 l-2 283 38 63 c21 34 42 67 46 72 5 6 110 172 235 370 125 198 239
376 253 395 14 19 29 41 33 48 6 9 -32 12 -173 12 -156 0 -181 -2 -181 -15 0
-22 -61 -141 -136 -262 -35 -58 -64 -107 -64 -109 0 -2 -104 -174 -130 -214
-5 -8 -19 -32 -30 -52 -11 -21 -24 -38 -28 -38 -10 0 -348 577 -374 639 l-22
51 -178 0 -178 0 52 -75z"/>
<path d="M3037 2263 c-2 -2 -1 -23 4 -46 10 -51 10 -1450 0 -1528 l-7 -55 191
3 c595 9 617 10 697 31 191 51 333 168 422 348 72 147 97 275 91 479 -4 191
-36 318 -110 443 -95 161 -260 274 -445 306 -61 11 -834 29 -843 19z m771
-259 c89 -18 149 -50 204 -107 85 -88 134 -221 141 -385 9 -222 -53 -415 -168
-521 -97 -90 -169 -107 -451 -110 l-211 -2 0 571 0 571 211 -2 c133 -1 235 -6
274 -15z"/>
<path d="M1285 2198 c8 -78 7 -1420 -1 -1500 l-6 -58 154 0 154 0 -7 53 c-10
70 -10 1459 0 1520 l8 47 -155 0 -154 0 7 -62z"/>
</g>
</svg>
